<?xml version="1.0" standalone="no"?>
<!DOCTYPE svg PUBLIC "-//W3C//DTD SVG 20010904//EN"
 "http://www.w3.org/TR/2001/REC-SVG-20010904/DTD/svg10.dtd">
<svg version="1.0" xmlns="http://www.w3.org/2000/svg"
 width="156.000000pt" height="156.000000pt" viewBox="0 0 156.000000 156.000000"
 preserveAspectRatio="xMidYMid meet">
<metadata>
Created by potrace 1.14, written by Peter Selinger 2001-2017
</metadata>
<g transform="translate(0.000000,156.000000) scale(0.100000,-0.100000)"
fill="#000000" stroke="none">
<path d="M391 1494 c-140 -29 -254 -128 -316 -274 -18 -41 -20 -77 -23 -418
-3 -397 -1 -427 48 -523 50 -98 175 -194 285 -220 58 -13 657 -19 750 -6 123
16 260 109 317 214 57 104 59 128 56 530 -3 329 -5 373 -21 417 -49 130 -159
235 -287 273 -46 14 -110 17 -402 18 -240 1 -365 -3 -407 -11z m104 -604
l-105 -106 105 -105 106 -106 -36 -39 -36 -38 -144 144 -145 145 142 142 142
143 38 -37 38 -37 -105 -106z m815 -106 c0 -5 -63 -72 -139 -148 l-139 -139
-37 38 -36 39 106 106 105 105 -105 105 -105 104 37 38 36 37 139 -138 c76
-75 138 -142 138 -147z m-436 104 c-59 -224 -102 -379 -107 -385 -3 -2 -27 -3
-55 -1 l-49 3 22 80 c13 44 44 159 70 254 64 239 55 221 114 221 l50 0 -45
-172z"/>
</g>
</svg>
